<svg xmlns="http://www.w3.org/2000/svg" viewBox="0 0 512 512">
  <defs>
    <linearGradient id="bg" x1="0" y1="0" x2="1" y2="1">
      <stop offset="0%" stop-color="#ef4444"/>
      <stop offset="100%" stop-color="#f97316"/>
    </linearGradient>
  </defs>
  <rect width="512" height="512" rx="120" fill="#0f172a"/>
  <rect x="92" y="92" width="328" height="328" rx="92" fill="url(#bg)"/>
  <path d="M256 132c-14 34-52 62-52 112 0 34 24 56 52 56s52-22 52-56c0-50-38-78-52-112Zm0 188c-18 0-32-14-32-34 0-20 10-34 32-54 22 20 32 34 32 54 0 20-14 34-32 34Z" fill="#fff"/>
  <path d="M256 218c-10 16-20 27-20 44 0 12 9 22 20 22s20-10 20-22c0-17-10-28-20-44Z" fill="#0f172a" opacity="0.45"/>
</svg>
