<svg width="300" height="600" viewBox="0 0 300 600" fill="none" xmlns="http://www.w3.org/2000/svg" font-family="system-ui, -apple-system, 'Segoe UI', sans-serif">
  <defs>
    <radialGradient id="glow" cx="50%" cy="45%" r="50%">
      <stop offset="0%" stop-color="#dc2626" stop-opacity="0.22"/>
      <stop offset="100%" stop-color="#dc2626" stop-opacity="0"/>
    </radialGradient>
    <!-- echtes App-Hintergrund-Gradient aus index.css -->
    <linearGradient id="appbg" x1="0" y1="0" x2="0" y2="1">
      <stop offset="0%" stop-color="#020617"/>
      <stop offset="30%" stop-color="#0f172a"/>
      <stop offset="100%" stop-color="#111827"/>
    </linearGradient>
    <clipPath id="screen">
      <rect x="0" y="0" width="256" height="534" rx="44"/>
    </clipPath>
  </defs>

  <ellipse cx="160" cy="300" rx="150" ry="150" fill="url(#glow)"/>

  <g transform="translate(22,33)">
    <rect x="0" y="0" width="256" height="534" rx="44" fill="#020617" stroke="#ffffff" stroke-opacity="0.16" stroke-width="1.5"/>

    <g clip-path="url(#screen)">
      <rect x="0" y="0" width="256" height="534" fill="url(#appbg)"/>

      <!-- OS-Statusleiste -->
      <rect x="87" y="-2" width="82" height="24" rx="12" fill="#020617"/>
      <text x="18" y="23" font-size="11" font-weight="700" fill="#ffffff" fill-opacity="0.85">9:41</text>
      <rect x="206" y="16" width="2.5" height="4" rx="0.5" fill="#ffffff" fill-opacity="0.7"/>
      <rect x="210" y="13" width="2.5" height="7" rx="0.5" fill="#ffffff" fill-opacity="0.7"/>
      <rect x="214" y="10" width="2.5" height="10" rx="0.5" fill="#ffffff" fill-opacity="0.7"/>
      <rect x="218" y="8" width="2.5" height="12" rx="0.5" fill="#ffffff" fill-opacity="0.35"/>
      <rect x="226" y="11" width="16" height="9" rx="2" stroke="#ffffff" stroke-opacity="0.4" stroke-width="1"/>
      <rect x="227.5" y="12.5" width="11" height="6" rx="1" fill="#ffffff" fill-opacity="0.75"/>
      <rect x="242.5" y="13.5" width="1.8" height="4" rx="0.8" fill="#ffffff" fill-opacity="0.32"/>

      <!-- .app-statusbar: schwebt oben rechts = Sync-Punkt (connected) + Zahnrad -->
      <circle cx="205" cy="52" r="3.5" fill="#6ee7b7"/>
      <circle cx="231" cy="52" r="13" fill="#1e293b"/>
      <g transform="translate(224.2,45.2) scale(0.575)" stroke="#94a3b8" stroke-width="2" fill="none" stroke-linecap="round" stroke-linejoin="round">
        <circle cx="12" cy="12" r="3"/>
        <path d="M19.4 15a1.65 1.65 0 0 0 .33 1.82l.06.06a2 2 0 1 1-2.83 2.83l-.06-.06a1.65 1.65 0 0 0-1.82-.33 1.65 1.65 0 0 0-1 1.51V21a2 2 0 0 1-4 0v-.09A1.65 1.65 0 0 0 9 19.4a1.65 1.65 0 0 0-1.82.33l-.06.06a2 2 0 1 1-2.83-2.83l.06-.06a1.65 1.65 0 0 0 .33-1.82 1.65 1.65 0 0 0-1.51-1H3a2 2 0 0 1 0-4h.09A1.65 1.65 0 0 0 4.6 9a1.65 1.65 0 0 0-.33-1.82l-.06-.06a2 2 0 1 1 2.83-2.83l.06.06a1.65 1.65 0 0 0 1.82.33H9a1.65 1.65 0 0 0 1-1.51V3a2 2 0 0 1 4 0v.09a1.65 1.65 0 0 0 1 1.51 1.65 1.65 0 0 0 1.82-.33l.06-.06a2 2 0 1 1 2.83 2.83l-.06.06a1.65 1.65 0 0 0-.33 1.82V9a1.65 1.65 0 0 0 1.51 1H21a2 2 0 0 1 0 4h-.09a1.65 1.65 0 0 0-1.51 1z"/>
      </g>

      <!-- .section-head: h2 + .segmented-compact (A/B) -->
      <text x="14" y="96" font-size="18" font-weight="800" fill="#f8fafc">Stoppuhr</text>
      <rect x="176" y="80" width="68" height="24" rx="8" fill="#1e293b"/>
      <rect x="178" y="82" width="32" height="20" rx="6" fill="#f97316"/>
      <text x="194" y="96" font-size="10" font-weight="700" fill="#1a0f04" text-anchor="middle">A</text>
      <text x="227" y="96" font-size="10" font-weight="700" fill="#94a3b8" text-anchor="middle">B</text>

      <!-- .surface-card.timer-display-card -->
      <rect x="10" y="114" width="236" height="108" rx="20" fill="#1e293b" stroke="#94a3b8" stroke-opacity="0.2"/>
      <text x="128" y="137" font-size="8" font-weight="700" letter-spacing="1" fill="#94a3b8" text-anchor="middle">A-TEIL LAUF</text>
      <text x="128" y="177" font-size="34" font-weight="700" fill="#f8fafc" text-anchor="middle" font-family="ui-monospace, 'SF Mono', 'JetBrains Mono', monospace">02:34,7</text>
      <!-- .knot-status-band (inset, gestapelt) -->
      <rect x="74" y="186" width="108" height="30" rx="9" fill="#0f172a" fill-opacity="0.55"/>
      <text x="128" y="198" font-size="7" fill="#94a3b8" text-anchor="middle">Knotenzeit</text>
      <text x="128" y="210" font-size="10" font-weight="700" fill="#f8fafc" text-anchor="middle">00:28,3<tspan dx="5" font-size="6.5" font-weight="400" fill="#94a3b8">läuft</tspan></text>

      <!-- .timer-actions-grid -->
      <rect x="10" y="230" width="140" height="58" rx="16" fill="#10b981"/>
      <text x="80" y="265" font-size="19" font-weight="800" fill="#052e16" text-anchor="middle">START</text>
      <!-- .secondary-action (Reset) -->
      <rect x="158" y="230" width="88" height="27" rx="12" fill="#334155"/>
      <g transform="translate(182,237.5) scale(0.5)" stroke="#f8fafc" stroke-width="2" fill="none" stroke-linecap="round" stroke-linejoin="round">
        <path d="M3 3v5h5"/><path d="M3.05 13A9 9 0 1 0 6 5.3L3 8"/>
      </g>
      <text x="198" y="247.5" font-size="9" font-weight="700" fill="#f8fafc" text-anchor="start">Reset</text>
      <!-- .secondary-action.save -->
      <rect x="158" y="261" width="88" height="27" rx="12" fill="#2563eb"/>
      <g transform="translate(167,268.5) scale(0.5)" stroke="#ffffff" stroke-width="2" fill="none" stroke-linecap="round" stroke-linejoin="round">
        <path d="M19 21H5a2 2 0 0 1-2-2V5a2 2 0 0 1 2-2h11l5 5v11a2 2 0 0 1-2 2z"/><polyline points="17 21 17 13 7 13 7 21"/><polyline points="7 3 7 8 15 8"/>
      </g>
      <text x="183" y="278.5" font-size="8.5" font-weight="700" fill="#ffffff" text-anchor="start">Speichern</text>

      <!-- .surface-card.stacked-card: Zwischenzeiten -->
      <rect x="10" y="298" width="236" height="116" rx="20" fill="#1e293b" stroke="#94a3b8" stroke-opacity="0.2"/>
      <text x="24" y="320" font-size="11" font-weight="700" fill="#f8fafc">Zwischenzeiten</text>
      <!-- .split-button-grid (2 Spalten) -->
      <rect x="18" y="328" width="104" height="44" rx="12" fill="#334155"/>
      <g transform="translate(62,333) scale(0.62)" stroke="#f8fafc" stroke-width="2" fill="none" stroke-linecap="round" stroke-linejoin="round">
        <path d="M10 13a5 5 0 0 0 7.54.54l3-3a5 5 0 0 0-7.07-7.07l-1.72 1.71"/><path d="M14 11a5 5 0 0 0-7.54-.54l-3 3a5 5 0 0 0 7.07 7.07l1.71-1.71"/>
      </g>
      <text x="70" y="365" font-size="9" font-weight="600" fill="#f8fafc" text-anchor="middle">zu Wasser</text>
      <rect x="134" y="328" width="104" height="44" rx="12" fill="#334155"/>
      <g transform="translate(178,333) scale(0.62)" stroke="#f8fafc" stroke-width="2" fill="none" stroke-linecap="round" stroke-linejoin="round">
        <path d="M12 22s8-4 8-10V5l-8-3-8 3v7c0 6 8 10 8 10z"/>
      </g>
      <text x="186" y="365" font-size="9" font-weight="600" fill="#f8fafc" text-anchor="middle">Knoten Start</text>
      <!-- .split-list > .split-row -->
      <rect x="18" y="380" width="220" height="26" rx="12" fill="#0f172a"/>
      <text x="30" y="397" font-size="9" font-weight="500" fill="#f8fafc">zu Wasser</text>
      <text x="206" y="397" font-size="9.5" font-weight="700" fill="#f8fafc" text-anchor="end" font-family="ui-monospace, monospace">01:12,4</text>
      <g transform="translate(221,389.5) scale(0.42)" stroke="#fca5a5" stroke-width="2" fill="none" stroke-linecap="round" stroke-linejoin="round">
        <path d="M18 6 6 18"/><path d="M6 6l12 12"/>
      </g>

      <!-- .surface-card.stacked-card: Notizen zum Lauf -->
      <rect x="10" y="424" width="236" height="40" rx="20" fill="#1e293b" stroke="#94a3b8" stroke-opacity="0.2"/>
      <text x="24" y="442" font-size="11" font-weight="700" fill="#f8fafc">Notizen zum Lauf</text>
      <rect x="24" y="448" width="208" height="9" rx="4" fill="#0f172a"/>

      <!-- .bottom-navigation -->
      <rect x="0" y="470" width="256" height="64" fill="#020617" fill-opacity="0.96"/>
      <line x1="0" y1="470" x2="256" y2="470" stroke="#94a3b8" stroke-opacity="0.2"/>
      <!-- aktive .active::before Indikatorleiste über Stoppuhr -->
      <rect x="83" y="473" width="26" height="3" rx="1.5" fill="#f97316"/>

      <!-- Aufstellung (Users) -->
      <g transform="translate(22.6,484) scale(0.78)" stroke="#94a3b8" stroke-width="2" fill="none" stroke-linecap="round" stroke-linejoin="round">
        <path d="M17 21v-2a4 4 0 0 0-4-4H5a4 4 0 0 0-4 4v2"/><circle cx="9" cy="7" r="4"/><path d="M23 21v-2a4 4 0 0 0-3-3.87m-4-12a4 4 0 0 1 0 7.75"/>
      </g>
      <text x="32" y="514" font-size="7" font-weight="700" fill="#94a3b8" text-anchor="middle">Aufstellung</text>

      <!-- Stoppuhr (Timer) aktiv -->
      <g transform="translate(86.6,484) scale(0.78)" stroke="#f97316" stroke-width="2" fill="none" stroke-linecap="round" stroke-linejoin="round">
        <line x1="10" x2="14" y1="2" y2="2"/><line x1="12" x2="15" y1="14" y2="11"/><circle cx="12" cy="14" r="8"/>
      </g>
      <text x="96" y="514" font-size="7" font-weight="700" fill="#f97316" text-anchor="middle">Stoppuhr</text>

      <!-- Analyse (BarChart2) -->
      <g transform="translate(150.6,484) scale(0.78)" stroke="#94a3b8" stroke-width="2" fill="none" stroke-linecap="round" stroke-linejoin="round">
        <line x1="18" x2="18" y1="20" y2="10"/><line x1="12" x2="12" y1="20" y2="4"/><line x1="6" x2="6" y1="20" y2="14"/>
      </g>
      <text x="160" y="514" font-size="7" font-weight="700" fill="#94a3b8" text-anchor="middle">Analyse</text>

      <!-- Wissen (BookOpen) -->
      <g transform="translate(214.6,484) scale(0.78)" stroke="#94a3b8" stroke-width="2" fill="none" stroke-linecap="round" stroke-linejoin="round">
        <path d="M2 3h6a4 4 0 0 1 4 4v14a3 3 0 0 0-3-3H2z"/><path d="M22 3h-6a4 4 0 0 0-4 4v14a3 3 0 0 1 3-3h7z"/>
      </g>
      <text x="224" y="514" font-size="7" font-weight="700" fill="#94a3b8" text-anchor="middle">Wissen</text>
    </g>
  </g>
</svg>
