<svg width="300" height="600" viewBox="0 0 300 600" fill="none" xmlns="http://www.w3.org/2000/svg" font-family="system-ui, -apple-system, 'Segoe UI', sans-serif">
  <defs>
    <radialGradient id="glow" cx="50%" cy="45%" r="50%">
      <stop offset="0%" stop-color="#dc2626" stop-opacity="0.22"/>
      <stop offset="100%" stop-color="#dc2626" stop-opacity="0"/>
    </radialGradient>
    <linearGradient id="appbg" x1="0" y1="0" x2="0" y2="1">
      <stop offset="0%" stop-color="#020617"/>
      <stop offset="30%" stop-color="#0f172a"/>
      <stop offset="100%" stop-color="#111827"/>
    </linearGradient>
    <clipPath id="screen">
      <rect x="0" y="0" width="256" height="534" rx="44"/>
    </clipPath>
  </defs>

  <ellipse cx="160" cy="300" rx="150" ry="150" fill="url(#glow)"/>

  <g transform="translate(22,33)">
    <rect x="0" y="0" width="256" height="534" rx="44" fill="#020617" stroke="#ffffff" stroke-opacity="0.16" stroke-width="1.5"/>

    <g clip-path="url(#screen)">
      <rect x="0" y="0" width="256" height="534" fill="url(#appbg)"/>

      <!-- OS-Statusleiste -->
      <rect x="87" y="-2" width="82" height="24" rx="12" fill="#020617"/>
      <text x="18" y="23" font-size="11" font-weight="700" fill="#ffffff" fill-opacity="0.85">9:41</text>
      <rect x="206" y="16" width="2.5" height="4" rx="0.5" fill="#ffffff" fill-opacity="0.7"/>
      <rect x="210" y="13" width="2.5" height="7" rx="0.5" fill="#ffffff" fill-opacity="0.7"/>
      <rect x="214" y="10" width="2.5" height="10" rx="0.5" fill="#ffffff" fill-opacity="0.7"/>
      <rect x="218" y="8" width="2.5" height="12" rx="0.5" fill="#ffffff" fill-opacity="0.35"/>
      <rect x="226" y="11" width="16" height="9" rx="2" stroke="#ffffff" stroke-opacity="0.4" stroke-width="1"/>
      <rect x="227.5" y="12.5" width="11" height="6" rx="1" fill="#ffffff" fill-opacity="0.75"/>
      <rect x="242.5" y="13.5" width="1.8" height="4" rx="0.8" fill="#ffffff" fill-opacity="0.32"/>

      <!-- .app-statusbar: Sync-Punkt (connected) + Zahnrad -->
      <circle cx="205" cy="52" r="3.5" fill="#6ee7b7"/>
      <circle cx="231" cy="52" r="13" fill="#1e293b"/>
      <g transform="translate(224.2,45.2) scale(0.575)" stroke="#94a3b8" stroke-width="2" fill="none" stroke-linecap="round" stroke-linejoin="round">
        <circle cx="12" cy="12" r="3"/>
        <path d="M19.4 15a1.65 1.65 0 0 0 .33 1.82l.06.06a2 2 0 1 1-2.83 2.83l-.06-.06a1.65 1.65 0 0 0-1.82-.33 1.65 1.65 0 0 0-1 1.51V21a2 2 0 0 1-4 0v-.09A1.65 1.65 0 0 0 9 19.4a1.65 1.65 0 0 0-1.82.33l-.06.06a2 2 0 1 1-2.83-2.83l.06-.06a1.65 1.65 0 0 0 .33-1.82 1.65 1.65 0 0 0-1.51-1H3a2 2 0 0 1 0-4h.09A1.65 1.65 0 0 0 4.6 9a1.65 1.65 0 0 0-.33-1.82l-.06-.06a2 2 0 1 1 2.83-2.83l.06.06a1.65 1.65 0 0 0 1.82.33H9a1.65 1.65 0 0 0 1-1.51V3a2 2 0 0 1 4 0v.09a1.65 1.65 0 0 0 1 1.51 1.65 1.65 0 0 0 1.82-.33l.06-.06a2 2 0 1 1 2.83 2.83l-.06.06a1.65 1.65 0 0 0-.33 1.82V9a1.65 1.65 0 0 0 1.51 1H21a2 2 0 0 1 0 4h-.09a1.65 1.65 0 0 0-1.51 1z"/>
      </g>

      <!-- .section-head: h2 + .icon-button (Users) -->
      <text x="14" y="96" font-size="18" font-weight="800" fill="#f8fafc">Aufstellung</text>
      <circle cx="228" cy="90" r="13" fill="#1e293b"/>
      <g transform="translate(221.3,83.3) scale(0.56)" stroke="#94a3b8" stroke-width="2" fill="none" stroke-linecap="round" stroke-linejoin="round">
        <path d="M17 21v-2a4 4 0 0 0-4-4H5a4 4 0 0 0-4 4v2"/><circle cx="9" cy="7" r="4"/><path d="M23 21v-2a4 4 0 0 0-3-3.87m-4-12a4 4 0 0 1 0 7.75"/>
      </g>

      <!-- .segmented-bar (A-Teil / B-Teil) -->
      <rect x="10" y="112" width="236" height="26" rx="10" fill="#1e293b"/>
      <rect x="13" y="115" width="113" height="20" rx="7" fill="#f97316"/>
      <text x="69" y="129" font-size="9.5" font-weight="700" fill="#1a0f04" text-anchor="middle">A-Teil</text>
      <text x="186" y="129" font-size="9.5" font-weight="700" fill="#94a3b8" text-anchor="middle">B-Teil</text>

      <!-- .info-banner -->
      <rect x="10" y="144" width="236" height="26" rx="10" fill="#1e293b" stroke="#94a3b8" stroke-opacity="0.2"/>
      <text x="20" y="155" font-size="6.5" fill="#94a3b8">Freie Positionen öffnen die Namensliste.</text>
      <text x="20" y="164.5" font-size="6.5" fill="#94a3b8">Besetzte Positionen starten einen Schnelltausch.</text>

      <!-- .position-list -->
      <rect x="10" y="176" width="236" height="29" rx="10" fill="#1e293b" stroke="#94a3b8" stroke-opacity="0.24"/>
      <circle cx="27" cy="190.5" r="10" fill="#f97316"/>
      <text x="27" y="192.9" font-size="7" font-weight="800" fill="#1a0f04" text-anchor="middle">GF</text>
      <text x="45" y="187.5" font-size="6.5" fill="#94a3b8">Gruppenführer (GF)</text>
      <text x="45" y="198.0" font-size="8.5" font-weight="700" fill="#f8fafc">Leon</text>
      <g transform="translate(222.5,183.0) scale(0.625)" stroke="#fda4af" stroke-width="2" fill="none" stroke-linecap="round" stroke-linejoin="round"><circle cx="12" cy="12" r="10"/><path d="m15 9-6 6"/><path d="m9 9 6 6"/></g>
      <rect x="10" y="208" width="236" height="29" rx="10" fill="#1e293b" stroke="#94a3b8" stroke-opacity="0.24"/>
      <circle cx="27" cy="222.5" r="10" fill="#f97316"/>
      <text x="27" y="224.9" font-size="7" font-weight="800" fill="#1a0f04" text-anchor="middle">Me</text>
      <text x="45" y="219.5" font-size="6.5" fill="#94a3b8">Melder (Me)</text>
      <text x="45" y="230.0" font-size="8.5" font-weight="700" fill="#f8fafc">Mia</text>
      <g transform="translate(222.5,215.0) scale(0.625)" stroke="#fda4af" stroke-width="2" fill="none" stroke-linecap="round" stroke-linejoin="round"><circle cx="12" cy="12" r="10"/><path d="m15 9-6 6"/><path d="m9 9 6 6"/></g>
      <rect x="10" y="240" width="236" height="29" rx="10" fill="#1e293b" stroke="#94a3b8" stroke-opacity="0.24"/>
      <circle cx="27" cy="254.5" r="10" fill="#f97316"/>
      <text x="27" y="256.9" font-size="7" font-weight="800" fill="#1a0f04" text-anchor="middle">Ma</text>
      <text x="45" y="251.5" font-size="6.5" fill="#94a3b8">Maschinist (Ma)</text>
      <text x="45" y="262.0" font-size="8.5" font-weight="700" fill="#f8fafc">Jonas</text>
      <g transform="translate(222.5,247.0) scale(0.625)" stroke="#fda4af" stroke-width="2" fill="none" stroke-linecap="round" stroke-linejoin="round"><circle cx="12" cy="12" r="10"/><path d="m15 9-6 6"/><path d="m9 9 6 6"/></g>
      <rect x="10" y="272" width="236" height="29" rx="10" fill="#1e293b" stroke="#94a3b8" stroke-opacity="0.24"/>
      <circle cx="27" cy="286.5" r="10" fill="#f97316"/>
      <text x="27" y="288.9" font-size="6" font-weight="800" fill="#1a0f04" text-anchor="middle">ATF</text>
      <text x="45" y="283.5" font-size="6.5" fill="#94a3b8">Angriffstruppführer (ATF)</text>
      <text x="45" y="294.0" font-size="8.5" font-weight="700" fill="#f8fafc">Sophie</text>
      <g transform="translate(222.5,279.0) scale(0.625)" stroke="#fda4af" stroke-width="2" fill="none" stroke-linecap="round" stroke-linejoin="round"><circle cx="12" cy="12" r="10"/><path d="m15 9-6 6"/><path d="m9 9 6 6"/></g>
      <rect x="10" y="304" width="236" height="29" rx="10" fill="#1e293b" stroke="#94a3b8" stroke-opacity="0.24"/>
      <circle cx="27" cy="318.5" r="10" fill="#f97316"/>
      <text x="27" y="320.9" font-size="6" font-weight="800" fill="#1a0f04" text-anchor="middle">ATM</text>
      <text x="45" y="315.5" font-size="6.5" fill="#94a3b8">Angriffstruppmann (ATM)</text>
      <text x="45" y="326.0" font-size="8.5" font-weight="700" fill="#f8fafc">Felix</text>
      <g transform="translate(222.5,311.0) scale(0.625)" stroke="#fda4af" stroke-width="2" fill="none" stroke-linecap="round" stroke-linejoin="round"><circle cx="12" cy="12" r="10"/><path d="m15 9-6 6"/><path d="m9 9 6 6"/></g>
      <rect x="10" y="336" width="236" height="29" rx="10" fill="#1e293b" stroke="#94a3b8" stroke-opacity="0.24"/>
      <circle cx="27" cy="350.5" r="10" fill="#f97316"/>
      <text x="27" y="352.9" font-size="6" font-weight="800" fill="#1a0f04" text-anchor="middle">WTF</text>
      <text x="45" y="347.5" font-size="6.5" fill="#94a3b8">Wassertruppführer (WTF)</text>
      <text x="45" y="358.0" font-size="8.5" font-weight="700" fill="#f8fafc">Lukas</text>
      <g transform="translate(222.5,343.0) scale(0.625)" stroke="#fda4af" stroke-width="2" fill="none" stroke-linecap="round" stroke-linejoin="round"><circle cx="12" cy="12" r="10"/><path d="m15 9-6 6"/><path d="m9 9 6 6"/></g>
      <rect x="10" y="368" width="236" height="29" rx="10" fill="#1e293b" stroke="#94a3b8" stroke-opacity="0.24"/>
      <circle cx="27" cy="382.5" r="10" fill="#f97316"/>
      <text x="27" y="384.9" font-size="6" font-weight="800" fill="#1a0f04" text-anchor="middle">WTM</text>
      <text x="45" y="379.5" font-size="6.5" fill="#94a3b8">Wassertruppmann (WTM)</text>
      <text x="45" y="390.0" font-size="8.5" font-weight="700" fill="#f8fafc">Emma</text>
      <g transform="translate(222.5,375.0) scale(0.625)" stroke="#fda4af" stroke-width="2" fill="none" stroke-linecap="round" stroke-linejoin="round"><circle cx="12" cy="12" r="10"/><path d="m15 9-6 6"/><path d="m9 9 6 6"/></g>
      <rect x="10" y="400" width="236" height="29" rx="10" fill="#1e293b" stroke="#94a3b8" stroke-opacity="0.24"/>
      <circle cx="27" cy="414.5" r="10" fill="#f97316"/>
      <text x="27" y="416.9" font-size="6" font-weight="800" fill="#1a0f04" text-anchor="middle">STF</text>
      <text x="45" y="411.5" font-size="6.5" fill="#94a3b8">Schlauchtruppführer (STF)</text>
      <text x="45" y="422.0" font-size="8.5" font-weight="700" fill="#f8fafc">Hannah</text>
      <g transform="translate(222.5,407.0) scale(0.625)" stroke="#fda4af" stroke-width="2" fill="none" stroke-linecap="round" stroke-linejoin="round"><circle cx="12" cy="12" r="10"/><path d="m15 9-6 6"/><path d="m9 9 6 6"/></g>
      <rect x="10" y="432" width="236" height="29" rx="10" fill="#0f172a" stroke="#94a3b8" stroke-opacity="0.35" stroke-dasharray="4 3"/>
      <circle cx="27" cy="446.5" r="10" fill="#1e293b"/>
      <text x="27" y="448.9" font-size="6" font-weight="800" fill="#94a3b8" text-anchor="middle">STM</text>
      <text x="45" y="443.5" font-size="6.5" fill="#94a3b8">Schlauchtruppmann (STM)</text>
      <text x="45" y="454.0" font-size="8.5" font-weight="700" fill="#94a3b8">Nicht besetzt</text>
      <g transform="translate(224.0,440.5) scale(0.6)" stroke="#94a3b8" stroke-width="2.2" fill="none" stroke-linecap="round" stroke-linejoin="round"><path d="m9 18 6-6-6-6"/></g>

      <!-- .bottom-navigation -->
      <rect x="0" y="470" width="256" height="64" fill="#020617" fill-opacity="0.96"/>
      <line x1="0" y1="470" x2="256" y2="470" stroke="#94a3b8" stroke-opacity="0.2"/>
      <!-- aktiv: Aufstellung -->
      <rect x="19" y="473" width="26" height="3" rx="1.5" fill="#f97316"/>

      <!-- Aufstellung (Users) aktiv -->
      <g transform="translate(22.6,484) scale(0.78)" stroke="#f97316" stroke-width="2" fill="none" stroke-linecap="round" stroke-linejoin="round">
        <path d="M17 21v-2a4 4 0 0 0-4-4H5a4 4 0 0 0-4 4v2"/><circle cx="9" cy="7" r="4"/><path d="M23 21v-2a4 4 0 0 0-3-3.87m-4-12a4 4 0 0 1 0 7.75"/>
      </g>
      <text x="32" y="514" font-size="7" font-weight="700" fill="#f97316" text-anchor="middle">Aufstellung</text>

      <!-- Stoppuhr (Timer) -->
      <g transform="translate(86.6,484) scale(0.78)" stroke="#94a3b8" stroke-width="2" fill="none" stroke-linecap="round" stroke-linejoin="round">
        <line x1="10" x2="14" y1="2" y2="2"/><line x1="12" x2="15" y1="14" y2="11"/><circle cx="12" cy="14" r="8"/>
      </g>
      <text x="96" y="514" font-size="7" font-weight="700" fill="#94a3b8" text-anchor="middle">Stoppuhr</text>

      <!-- Analyse (BarChart2) -->
      <g transform="translate(150.6,484) scale(0.78)" stroke="#94a3b8" stroke-width="2" fill="none" stroke-linecap="round" stroke-linejoin="round">
        <line x1="18" x2="18" y1="20" y2="10"/><line x1="12" x2="12" y1="20" y2="4"/><line x1="6" x2="6" y1="20" y2="14"/>
      </g>
      <text x="160" y="514" font-size="7" font-weight="700" fill="#94a3b8" text-anchor="middle">Analyse</text>

      <!-- Wissen (BookOpen) -->
      <g transform="translate(214.6,484) scale(0.78)" stroke="#94a3b8" stroke-width="2" fill="none" stroke-linecap="round" stroke-linejoin="round">
        <path d="M2 3h6a4 4 0 0 1 4 4v14a3 3 0 0 0-3-3H2z"/><path d="M22 3h-6a4 4 0 0 0-4 4v14a3 3 0 0 1 3-3h7z"/>
      </g>
      <text x="224" y="514" font-size="7" font-weight="700" fill="#94a3b8" text-anchor="middle">Wissen</text>
    </g>
  </g>
</svg>
